<svg xmlns="http://www.w3.org/2000/svg" xmlns:xlink="http://www.w3.org/1999/xlink" width="38px" height="32px" viewBox="0 0 38 32" version="1.1">
    <title>queriesTable</title>
    <g id="Page-1" stroke="none" stroke-width="1" fill="none" fill-rule="evenodd">
        <g id="Light" transform="translate(-162.000000, -783.000000)" fill="rgba(255,255,255,1)">
            <g id="Group-10" transform="translate(162.000000, 780.000000)">
                <g id="queriesTable" transform="translate(0.000000, 3.000000)">
                    <path d="M22.958,23.751 C28.13,23.751 32.322,19.558 32.322,14.386 C32.322,9.214 28.13,5.021 22.958,5.021 C17.785,5.021 13.593,9.214 13.593,14.386 C13.593,19.558 17.785,23.751 22.958,23.751 M22.958,21.758 C18.886,21.758 15.586,18.458 15.586,14.386 C15.586,10.313 18.886,7.013 22.958,7.013 C27.029,7.013 30.33,10.313 30.33,14.386 C30.33,18.458 27.029,21.758 22.958,21.758" id="Fill-32"/>
                    <polygon id="Fill-33" points="30.232146 23.0589982 35.4357693 28.2632673 36.1346153 28.9622 37.5333 27.5633417 36.834454 26.864409 31.6308307 21.6601399 30.930992 20.9622 29.5333 22.3600655"/>
                    <path d="M32.8213,20.0098 L33.5813,20.7698 L33.5813,18.3558 C33.3653,18.9278 33.1213,19.4858 32.8213,20.0098" id="Fill-35"/>
                    <path d="M5.6612,2.5 L5.6612,26.048 L30.3832,26.048 L32.7902,28.455 C32.6472,28.512 32.4942,28.548 32.3312,28.548 L4.4112,28.548 C3.7212,28.548 3.1612,27.988 3.1612,27.298 L3.1612,1.25 C3.1612,0.559 3.7212,0 4.4112,0 L29.7502,0 L32.3312,0 C33.0202,0 33.5812,0.56 33.5812,1.25 L33.5812,10.382 C33.0202,8.9 32.1682,7.565 31.0812,6.452 L31.0812,2.5 L29.7502,2.5 L5.6612,2.5 Z" id="Fill-36"/>
                    <path d="M2.5,5.5811 L2.5,29.1301 L26.589,29.1301 L27.92,29.1301 L30.42,29.0921 L30.42,30.3801 C30.42,31.0701 29.86,31.6301 29.17,31.6301 L26.589,31.6301 L1.25,31.6301 C0.56,31.6301 -2.84217094e-14,31.0701 -2.84217094e-14,30.3801 L-2.84217094e-14,4.3311 C-2.84217094e-14,3.6421 0.56,3.0811 1.25,3.0811 L2.5,3.0811 L2.5,5.5811 Z" id="Fill-37"/>
                    <path d="M12.4502,10.0684 L8.1352,10.0684 L8.1352,12.5684 L11.7522,12.5684 C11.8922,11.6994 12.1232,10.8604 12.4502,10.0684" id="Fill-38"/>
                    <path d="M16.9532,4.7539 L8.1352,4.7539 L8.1352,7.2539 L14.1212,7.2539 C14.9172,6.2699 15.8772,5.4279 16.9532,4.7539" id="Fill-39"/>
                    <path d="M11.6436,15.3828 L8.1346,15.3828 L8.1346,17.8828 L12.1496,17.8828 C11.8906,17.0838 11.7186,16.2468 11.6436,15.3828" id="Fill-40"/>
                    <path d="M13.5127,20.6973 L8.1347,20.6973 L8.1347,23.1973 L15.7927,23.1973 C14.9147,22.4823 14.1457,21.6393 13.5127,20.6973" id="Fill-41"/>
                </g>
            </g>
        </g>
    </g>
</svg>