<svg xmlns="http://www.w3.org/2000/svg" xmlns:xlink="http://www.w3.org/1999/xlink" width="34px" height="33px" viewBox="0 0 34 33" version="1.1">
    <!-- Generator: Sketch 43.1 (39012) - http://www.bohemiancoding.com/sketch -->
    <title>alert</title>
    <desc>Created with Sketch.</desc>
    <defs/>
    <g id="Page-1" stroke="none" stroke-width="1" fill="none" fill-rule="evenodd">
        <g id="Light" transform="translate(-180.000000, -353.000000)" fill-rule="nonzero" fill="rgba(255,67,81,1)">
            <g id="alert" transform="translate(180.000000, 353.000000)">
                <path d="M29.8333333,15.826087 L29.8333333,23.2391304 C29.8333333,24.6487437 30.9544897,25.7826087 32.3333333,25.7826087 L32.3333333,28.7826087 L1.66666667,28.7826087 L1.66666667,25.7826087 C3.04312656,25.7826087 4.16666667,24.6471176 4.16666667,23.2391304 L4.16666667,15.826087 C4.16666667,10.6542454 7.20078748,6.06290807 11.7703629,4.00475328 C12.4904502,1.76414946 14.5755982,0.173913043 17,0.173913043 C19.4239697,0.173913043 21.505218,1.76369546 22.2254181,4.00472031 C26.7957498,6.06342765 29.8333333,10.655619 29.8333333,15.826087 Z M32.3333333,25.7826087 C34.3333333,25.7826087 34.3333333,28.7826087 32.3333333,28.7826087 C30.2018534,28.7826087 28.3581347,27.5638616 27.4446549,25.7826093 L32.3333333,25.7826087 Z M1.66666667,28.7826087 C-0.333333333,28.7826087 -0.333333333,25.7826087 1.66666667,25.7826087 L6.55454532,25.7826087 C5.64031237,27.5635237 3.79594303,28.7826087 1.66666667,28.7826087 Z M26.8333333,23.2391304 L26.8333333,15.826087 C26.8333333,11.6346493 24.2415906,7.9416022 20.4182863,6.50259604 C19.9106254,6.31152385 19.5456709,5.86126063 19.4638358,5.32504128 C19.2753611,4.0900726 18.2309794,3.17391304 17,3.17391304 C15.7673907,3.17391304 14.7195635,4.09156489 14.5323159,5.32404495 C14.4507787,5.86072987 14.0856396,6.31148323 13.5775704,6.50264994 C9.75515036,7.94087817 7.16666667,11.6325738 7.16666667,15.826087 L7.16666667,23.2391304 C7.16666667,24.1555047 6.94577076,25.0204997 6.55454267,25.7826093 L27.4446522,25.7826087 C27.0538736,25.0206002 26.8333333,24.1556482 26.8333333,23.2391304 Z" id="Stroke-1"/>
                <path d="M19.5,27.2826087 C19.5,28.6905959 18.3764599,29.826087 17,29.826087 C15.6211564,29.826087 14.5,28.6922219 14.5,27.2826087 C14.5,26.4541816 13.8284271,25.7826087 13,25.7826087 C12.1715729,25.7826087 11.5,26.4541816 11.5,27.2826087 C11.5,30.341554 13.9566857,32.826087 17,32.826087 C20.0404611,32.826087 22.5,30.3403863 22.5,27.2826087 C22.5,26.4541816 21.8284271,25.7826087 21,25.7826087 C20.1715729,25.7826087 19.5,26.4541816 19.5,27.2826087 Z" id="Stroke-3"/>
            </g>
        </g>
    </g>
</svg>