<svg xmlns="http://www.w3.org/2000/svg" xmlns:xlink="http://www.w3.org/1999/xlink" xmlns:sketch="http://www.bohemiancoding.com/sketch/ns" width="43px" height="34px" viewBox="0 0 43 34" version="1.1">
    <!-- Generator: Sketch 3.3.3 (12081) - http://www.bohemiancoding.com/sketch -->
    <title>buchung</title>
    <desc>Created with Sketch.</desc>
    <defs>
        <path id="path-1" d="M10.798,17.263 L6.16,12.088 C6.162,12.046 6.173,12.007 6.173,11.965 C6.173,11.055 5.693,10.255 4.967,9.788 L4.59,1.484 C4.568,1.101 4.249,0.416 3.473,0.416 C2.7,0.416 2.386,1.101 2.36,1.484 L1.92,9.844 C1.239,10.318 0.791,11.089 0.791,11.965 C0.791,13.406 1.997,14.576 3.483,14.576 C3.591,14.576 3.694,14.556 3.799,14.545 L8.996,19.009 C9.29,19.265 10.049,19.496 10.674,18.892 C11.299,18.286 11.057,17.552 10.798,17.263 L10.798,17.263 Z"/>
    </defs>
    <g id="Page-1" stroke="none" stroke-width="1" fill="none" fill-rule="evenodd" sketch:type="MSPage">
        <g id="buchung" sketch:type="MSLayerGroup">
            <path d="M42.422,15.419 C41.493,6.296 33.175,-0.545 23.876,0.179 C19.306,0.532 15.202,2.627 12.32,6.076 C9.506,9.445 8.201,13.713 8.648,18.095 L8.71,18.708 L8.535,18.708 L2.736,12.923 L0.87,14.784 L8.007,21.863 C9.021,22.834 10.643,22.834 11.657,21.863 L18.754,14.784 L16.929,12.923 L11.214,18.624 L11.135,17.842 C10.757,14.136 11.86,10.527 14.239,7.679 C16.686,4.751 20.176,2.973 24.069,2.671 C32.029,2.051 39.142,7.888 39.935,15.672 C40.312,19.378 39.21,22.988 36.831,25.835 C34.384,28.764 30.893,30.542 27,30.844 C22.781,31.17 18.608,29.679 15.54,26.755 L14.636,25.893 L12.911,27.703 L13.816,28.565 C17.072,31.668 21.399,33.388 25.857,33.388 C26.301,33.388 26.747,33.37 27.192,33.336 C31.763,32.982 35.867,30.888 38.749,27.439 C41.564,24.069 42.868,19.801 42.422,15.419" id="Fill-31" fill="rgba(255,255,255,1)" sketch:type="MSShapeGroup"/>
            <g id="Group-34" transform="translate(21.000000, 7.000000)">
                <mask id="mask-2" sketch:name="Clip 33" fill="white">
                    <use xlink:href="#path-1"/>
                </mask>
                <g id="Clip-33"/>
                <path d="M0.791,0.416 L11.299,0.416 L11.299,19.496 L0.791,19.496 L0.791,0.416 Z" id="Fill-32" fill="rgba(255,255,255,1)" sketch:type="MSShapeGroup" mask="url(#mask-2)"/>
            </g>
        </g>
    </g>
</svg>