<svg xmlns="http://www.w3.org/2000/svg" xmlns:xlink="http://www.w3.org/1999/xlink" xmlns:sketch="http://www.bohemiancoding.com/sketch/ns" width="30px" height="26px" viewBox="0 0 30 26" version="1.1">
    <!-- Generator: Sketch 3.3.3 (12081) - http://www.bohemiancoding.com/sketch -->
    <title>cockpit</title>
    <desc>Created with Sketch.</desc>
    <defs/>
    <g id="Page-1" stroke="none" stroke-width="1" fill="none" fill-rule="evenodd" sketch:type="MSPage">
        <g id="cockpit" sketch:type="MSLayerGroup" fill="rgba(115,115,115,1)">
            <path d="M11.05,12.483 L3.542,12.483 C2.689,12.483 1.914,12.159 1.301,11.544 C0.689,10.931 0.365,10.157 0.365,9.307 L0.365,3.677 C0.365,2.828 0.689,2.054 1.3,1.439 C1.916,0.823 2.69,0.499 3.542,0.499 L11.05,0.499 C11.9,0.499 12.675,0.823 13.288,1.436 C13.902,2.051 14.227,2.825 14.227,3.677 L14.227,9.307 C14.227,10.159 13.901,10.934 13.287,11.547 C12.677,12.159 11.902,12.483 11.05,12.483 L11.05,12.483 Z M3.542,3.099 C3.407,3.099 3.287,3.129 3.141,3.275 C2.995,3.422 2.965,3.538 2.965,3.677 L2.965,9.307 C2.965,9.445 2.995,9.561 3.143,9.708 C3.288,9.855 3.403,9.884 3.542,9.884 L11.05,9.884 C11.189,9.884 11.303,9.855 11.448,9.708 C11.598,9.56 11.627,9.445 11.627,9.307 L11.627,3.677 C11.627,3.538 11.598,3.422 11.45,3.275 C11.304,3.129 11.185,3.099 11.05,3.099 L3.542,3.099 L3.542,3.099 Z" id="Fill-2" sketch:type="MSShapeGroup"/>
            <path d="M11.05,25.944 L3.542,25.944 C2.691,25.944 1.918,25.621 1.304,25.009 C0.689,24.391 0.365,23.617 0.365,22.768 L0.365,17.137 C0.365,16.289 0.689,15.516 1.3,14.9 C1.916,14.285 2.69,13.96 3.542,13.96 L11.05,13.96 C11.9,13.96 12.675,14.285 13.288,14.898 C13.902,15.512 14.227,16.286 14.227,17.137 L14.227,22.768 C14.227,23.62 13.902,24.395 13.288,25.008 C12.673,25.621 11.899,25.944 11.05,25.944 L11.05,25.944 Z M3.542,16.56 C3.407,16.56 3.287,16.59 3.141,16.737 C2.995,16.883 2.965,17.003 2.965,17.137 L2.965,22.768 C2.965,22.902 2.995,23.023 3.143,23.17 C3.287,23.315 3.407,23.345 3.542,23.345 L11.05,23.345 C11.185,23.345 11.304,23.315 11.451,23.168 C11.598,23.022 11.627,22.906 11.627,22.768 L11.627,17.137 C11.627,16.999 11.598,16.884 11.45,16.737 C11.304,16.59 11.185,16.56 11.05,16.56 L3.542,16.56 L3.542,16.56 Z" id="Fill-3" sketch:type="MSShapeGroup"/>
            <path d="M26.387,12.483 L18.879,12.483 C18.026,12.483 17.252,12.159 16.639,11.544 C16.027,10.933 15.703,10.158 15.703,9.307 L15.703,3.677 C15.703,2.826 16.026,2.052 16.639,1.438 C17.254,0.823 18.028,0.499 18.879,0.499 L26.387,0.499 C27.237,0.499 28.012,0.823 28.625,1.436 C29.24,2.051 29.565,2.826 29.565,3.677 L29.565,9.307 C29.565,10.159 29.239,10.933 28.624,11.547 C28.014,12.159 27.239,12.483 26.387,12.483 L26.387,12.483 Z M18.879,3.099 C18.744,3.099 18.625,3.129 18.478,3.275 C18.333,3.422 18.303,3.538 18.303,3.677 L18.303,9.307 C18.303,9.445 18.332,9.561 18.478,9.707 C18.626,9.855 18.74,9.884 18.879,9.884 L26.387,9.884 C26.525,9.884 26.641,9.855 26.785,9.708 C26.935,9.56 26.965,9.445 26.965,9.307 L26.965,3.677 C26.965,3.539 26.935,3.423 26.787,3.275 C26.641,3.129 26.522,3.099 26.387,3.099 L18.879,3.099 L18.879,3.099 Z" id="Fill-4" sketch:type="MSShapeGroup"/>
            <path d="M26.387,25.944 L18.879,25.944 C18.029,25.944 17.256,25.621 16.642,25.009 C16.027,24.393 15.703,23.619 15.703,22.768 L15.703,17.137 C15.703,16.287 16.026,15.514 16.639,14.899 C17.254,14.285 18.028,13.96 18.879,13.96 L26.387,13.96 C27.237,13.96 28.012,14.285 28.625,14.898 C29.24,15.513 29.565,16.287 29.565,17.137 L29.565,22.768 C29.565,23.619 29.239,24.394 28.625,25.008 C28.01,25.621 27.236,25.944 26.387,25.944 L26.387,25.944 Z M18.879,16.56 C18.744,16.56 18.625,16.59 18.478,16.737 C18.333,16.883 18.303,16.999 18.303,17.137 L18.303,22.768 C18.303,22.903 18.333,23.023 18.479,23.169 C18.625,23.315 18.744,23.345 18.879,23.345 L26.387,23.345 C26.522,23.345 26.641,23.315 26.788,23.168 C26.935,23.021 26.965,22.902 26.965,22.768 L26.965,17.137 C26.965,17 26.935,16.885 26.787,16.737 C26.641,16.59 26.522,16.56 26.387,16.56 L18.879,16.56 L18.879,16.56 Z" id="Fill-5" sketch:type="MSShapeGroup"/>
        </g>
    </g>
</svg>