<svg xmlns="http://www.w3.org/2000/svg" xmlns:xlink="http://www.w3.org/1999/xlink" xmlns:sketch="http://www.bohemiancoding.com/sketch/ns" width="32px" height="35px" viewBox="0 0 32 35" version="1.1">
    <!-- Generator: Sketch 3.3.3 (12081) - http://www.bohemiancoding.com/sketch -->
    <title>einsatzplan</title>
    <desc>Created with Sketch.</desc>
    <defs/>
    <g id="Page-1" stroke="none" stroke-width="1" fill="none" fill-rule="evenodd" sketch:type="MSPage">
        <g id="einsatzplan" sketch:type="MSLayerGroup">
            <path d="M9.186,12.738 L9.138,12.738 C7.108,12.738 5.457,11.086 5.457,9.057 L5.457,4.098 C5.457,2.068 7.108,0.417 9.138,0.417 C11.216,0.417 12.867,2.068 12.867,4.098 L12.867,9.057 C12.867,11.086 11.216,12.738 9.186,12.738 L9.186,12.738 Z M9.186,2.917 C8.486,2.917 7.957,3.447 7.957,4.098 L7.957,9.057 C7.957,9.708 8.486,10.238 9.138,10.238 L9.186,10.238 C9.838,10.238 10.367,9.708 10.367,9.057 L10.367,4.098 C10.367,3.447 9.838,2.917 9.186,2.917 L9.186,2.917 Z" id="Fill-25" fill="rgba(255,255,255,1)" sketch:type="MSShapeGroup"/>
            <path d="M22.716,12.738 L22.667,12.738 C20.638,12.738 18.986,11.086 18.986,9.057 L18.986,4.098 C18.986,2.068 20.638,0.417 22.667,0.417 C24.745,0.417 26.397,2.068 26.397,4.098 L26.397,9.057 C26.397,11.086 24.745,12.738 22.716,12.738 L22.716,12.738 Z M22.716,2.917 C22.016,2.917 21.486,3.447 21.486,4.098 L21.486,9.057 C21.486,9.708 22.016,10.238 22.667,10.238 L22.716,10.238 C23.367,10.238 23.897,9.708 23.897,9.057 L23.897,4.098 C23.897,3.447 23.367,2.917 22.716,2.917 L22.716,2.917 Z" id="Fill-26" fill="rgba(255,255,255,1)" sketch:type="MSShapeGroup"/>
            <path d="M29.887,34.488 L1.967,34.488 C1.276,34.488 0.717,33.929 0.717,33.238 L0.717,7.19 C0.717,6.499 1.276,5.94 1.967,5.94 L4.93,5.94 L4.93,8.44 L3.217,8.44 L3.217,31.988 L28.637,31.988 L28.637,8.44 L27.306,8.44 L27.306,5.94 L29.887,5.94 C30.577,5.94 31.137,6.499 31.137,7.19 L31.137,33.238 C31.137,33.929 30.577,34.488 29.887,34.488" id="Fill-27" fill="rgba(255,255,255,1)" sketch:type="MSShapeGroup"/>
            <path d="M13.927,7.19 L17.927,7.19" id="Stroke-28" stroke="rgba(255,255,255,1)" stroke-width="2.5" stroke-linejoin="round" sketch:type="MSShapeGroup"/>
            <path d="M4.751,21.514 L27.103,21.514 L27.103,13.914 L4.751,13.914 L4.751,21.514 Z M13.715,16.514 L17.99,16.514 L17.99,18.914 L13.715,18.914 L13.715,16.514 Z M7.351,16.514 L11.116,16.514 L11.116,18.914 L7.351,18.914 L7.351,16.514 Z M20.59,16.514 L24.504,16.514 L24.504,18.914 L20.59,18.914 L20.59,16.514 Z" id="Fill-29" fill="rgba(255,255,255,1)" sketch:type="MSShapeGroup"/>
            <path d="M4.751,30.561 L27.103,30.561 L27.103,22.961 L4.751,22.961 L4.751,30.561 Z M13.715,25.561 L17.99,25.561 L17.99,27.961 L13.715,27.961 L13.715,25.561 Z M7.351,25.561 L11.116,25.561 L11.116,27.961 L7.351,27.961 L7.351,25.561 Z M20.59,25.561 L24.504,25.561 L24.504,27.961 L20.59,27.961 L20.59,25.561 Z" id="Fill-30" fill="rgba(255,255,255,1)" sketch:type="MSShapeGroup"/>
        </g>
    </g>
</svg>