<svg xmlns="http://www.w3.org/2000/svg" xmlns:xlink="http://www.w3.org/1999/xlink" xmlns:sketch="http://www.bohemiancoding.com/sketch/ns" width="41px" height="35px" viewBox="0 0 41 35" version="1.1">
    <!-- Generator: Sketch 3.3.3 (12081) - http://www.bohemiancoding.com/sketch -->
    <title>kommen</title>
    <desc>Created with Sketch.</desc>
    <defs/>
    <g id="Page-1" stroke="none" stroke-width="1" fill="none" fill-rule="evenodd" sketch:type="MSPage">
        <g id="kommen" sketch:type="MSLayerGroup" fill="#000000">
            <path d="M23.927,34.16 C19.639,34.16 15.392,32.538 12.115,29.294 L13.976,27.429 C19.437,32.944 28.376,32.944 33.878,27.429 C39.379,21.954 39.379,12.992 33.878,7.477 C28.376,1.962 19.437,1.962 13.976,7.477 L12.115,5.611 C18.628,-0.877 29.226,-0.877 35.698,5.611 C42.21,12.14 42.21,22.765 35.698,29.294 C32.462,32.538 28.174,34.16 23.927,34.16" id="Fill-23" sketch:type="MSShapeGroup"/>
            <path d="M25.828,15.628 L25.828,15.628 L18.749,8.531 L16.889,10.356 L22.673,16.155 L1.639,16.155 L1.234,16.52 C0.749,17.047 0.749,17.858 1.234,18.386 L1.639,18.751 L22.673,18.751 L16.889,24.55 L18.749,26.415 L25.828,19.278 C26.799,18.264 26.799,16.642 25.828,15.628" id="Fill-24" sketch:type="MSShapeGroup"/>
        </g>
    </g>
</svg>