<svg xmlns="http://www.w3.org/2000/svg" id="Ebene_1" data-name="Ebene 1" viewBox="0 0 91.15 49.92"><defs><style>.cls-1{fill:#eb0000;}.cls-2{fill:#fff;}</style></defs><title>login_Neutral-RGB</title><polygon class="cls-1" points="44.61 20.84 38.77 49.92 85.45 49.92 91.15 20.84 44.61 20.84"/><path class="cls-2" d="M59.41,27.49H53.13L49.06,46.66h6.28Zm1.75-8.21H54.88l-1,4.82h6.28ZM63,27.49L59,46.66h6.28l2.24-10.55c0.5-2.34,1.33-4,4.14-4,2,0,2.36.91,2,2.78L71.11,46.66h6.28L80.2,33.41c0.88-4.13-.63-6.13-4.87-6.13-3,0-5,.77-6.54,3.8H68.54l0.76-3.58H63Z"/><path d="M12.1,0H5.82L0,27.38H6.28ZM40.38,22.56c-2.7,0-3-.8-2.2-4.75,0.94-4.42,1.35-5,4.28-5,2.63,0,3.18.66,2.26,5-0.7,3.28-1.26,4.75-4.33,4.75M30.26,29.09c-1.07,6.06.75,6.79,7.54,6.79,7.37,0,9.81-2.19,11.33-9.34L53,8.21H46.75l-0.5,3.39H46c-0.14-3-2-3.61-4.67-3.61-6.61,0-8.14,3.61-9.46,9.82-1.16,5.44-1.45,9.56,5.34,9.56,2.41,0,4.58-.77,5.89-3.14h0.22l-0.85,4c-0.57,2.67-1.24,3.1-3.94,3.1A4.08,4.08,0,0,1,36.68,31c-0.49-.29-0.69-0.88-0.46-1.93h-6Z"/><path d="M23.57,17.81c-0.88,4.16-1.35,5-4.27,5s-3.22-.8-2.34-5,1.43-5,4.46-5,3,0.84,2.15,5M22.34,8c-8,0-10,2-11.65,9.82-1.63,7.67-.36,9.78,7.48,9.78s10-1.9,11.68-9.78C31.57,9.71,30.37,8,22.34,8"/></svg>