<svg xmlns="http://www.w3.org/2000/svg" xmlns:xlink="http://www.w3.org/1999/xlink" xmlns:sketch="http://www.bohemiancoding.com/sketch/ns" width="31px" height="27px" viewBox="0 0 31 27" version="1.1">
    <!-- Generator: Sketch 3.3.3 (12081) - http://www.bohemiancoding.com/sketch -->
    <title>logout</title>
    <desc>Created with Sketch.</desc>
    <defs/>
    <g id="Page-1" stroke="none" stroke-width="1" fill="none" fill-rule="evenodd" sketch:type="MSPage">
        <g id="logout" sketch:type="MSLayerGroup" fill="#000000">
            <path d="M1.015,15.006 L1.015,15.006 L8.094,22.103 L9.954,20.279 L4.17,14.479 L25.204,14.479 L25.609,14.114 C26.094,13.587 26.094,12.776 25.609,12.249 L25.204,11.884 L4.17,11.884 L9.954,6.085 L8.094,4.22 L1.015,11.357 C0.044,12.37 0.044,13.992 1.015,15.006" id="Fill-1" sketch:type="MSShapeGroup"/>
            <path d="M29.276,26.281 L13.13,26.281 C12.412,26.281 11.83,25.699 11.83,24.981 L11.83,19.21 L14.43,19.21 L14.43,23.682 L27.976,23.682 L27.976,2.642 L14.43,2.642 L14.43,5.947 L11.83,5.947 L11.83,1.342 C11.83,0.624 12.412,0.042 13.13,0.042 L29.276,0.042 C29.994,0.042 30.576,0.624 30.576,1.342 L30.576,24.981 C30.576,25.699 29.994,26.281 29.276,26.281" id="Fill-2" sketch:type="MSShapeGroup"/>
        </g>
    </g>
</svg>