<svg xmlns="http://www.w3.org/2000/svg" xmlns:xlink="http://www.w3.org/1999/xlink" xmlns:sketch="http://www.bohemiancoding.com/sketch/ns" width="34px" height="33px" viewBox="0 0 34 33" version="1.1">
    <!-- Generator: Sketch 3.3.3 (12081) - http://www.bohemiancoding.com/sketch -->
    <title>personen</title>
    <desc>Created with Sketch.</desc>
    <defs/>
    <g id="Page-1" stroke="none" stroke-width="1" fill="none" fill-rule="evenodd" sketch:type="MSPage">
        <g id="personen" sketch:type="MSLayerGroup" fill="rgba(255,255,255,1)">
            <path d="M12.27,32.705 C9.309,32.705 0.298,32.705 0.298,27.876 L0.298,27.074 C0.298,23.676 5.922,21.245 7.96,20.477 C8.085,20.323 8.354,19.906 8.208,19.296 C6.353,17.254 5.209,14.348 5.209,11.636 C5.209,7.254 8.1,4.194 12.239,4.194 C15.684,4.194 19.392,6.523 19.392,11.636 C19.392,14.727 17.841,17.544 16.311,19.249 C16.15,19.914 16.298,20.315 16.396,20.491 C18.568,21.252 24.179,23.563 24.179,27.074 L24.179,27.876 C24.179,32.705 15.215,32.705 12.27,32.705 L12.27,32.705 Z M12.239,6.694 C10.149,6.694 7.709,7.988 7.709,11.636 C7.709,13.792 8.692,16.204 10.214,17.782 C10.333,17.904 10.425,18.05 10.484,18.21 C11.333,20.47 9.968,22.393 9.028,22.747 C5.176,24.16 2.798,26.092 2.798,27.074 L2.798,27.876 C2.798,28.95 5.278,30.205 12.27,30.205 C19.215,30.205 21.679,28.95 21.679,27.876 L21.679,27.074 C21.679,26.029 19.245,24.083 15.312,22.762 C14.434,22.474 13.246,20.767 13.959,18.376 C14.005,18.151 14.112,17.939 14.277,17.766 C15.483,16.506 16.892,14.144 16.892,11.636 C16.892,8.222 14.555,6.694 12.239,6.694 L12.239,6.694 Z" id="Fill-6" sketch:type="MSShapeGroup"/>
            <path d="M26.777,26.544 C26.15,26.544 25.609,26.073 25.537,25.436 C25.459,24.75 25.952,24.13 26.639,24.052 C29.454,23.733 31.203,23.001 31.203,22.143 L31.203,21.389 C31.203,20.43 28.935,18.635 25.27,17.407 C24.615,17.188 24.263,16.479 24.481,15.825 C24.702,15.17 25.411,14.817 26.065,15.037 C27.856,15.637 33.703,17.87 33.703,21.389 L33.703,22.143 C33.703,24.547 31.421,26.026 26.92,26.537 C26.872,26.542 26.825,26.544 26.777,26.544" id="Fill-7" sketch:type="MSShapeGroup"/>
            <path d="M25.659,17.471 C25.532,17.471 25.402,17.451 25.273,17.408 C24.553,17.178 24.185,16.707 24.003,16.352 C23.673,15.708 23.654,14.889 23.946,13.915 C23.992,13.691 24.1,13.479 24.265,13.307 C25.594,11.917 26.453,9.676 26.453,7.595 C26.453,4.774 24.901,3.022 22.402,3.022 C21.146,3.022 20.064,3.5 19.359,4.367 C18.923,4.903 18.138,4.983 17.601,4.548 C17.065,4.112 16.984,3.325 17.42,2.79 C18.608,1.327 20.378,0.522 22.402,0.522 C25.663,0.522 28.953,2.709 28.953,7.595 C28.953,10.209 27.942,12.932 26.298,14.789 C26.26,14.94 26.245,15.048 26.24,15.123 C26.751,15.416 27.019,16.04 26.824,16.614 C26.647,17.136 26.176,17.471 25.659,17.471" id="Fill-8" sketch:type="MSShapeGroup"/>
        </g>
    </g>
</svg>