<svg xmlns="http://www.w3.org/2000/svg" xmlns:xlink="http://www.w3.org/1999/xlink" width="34px" height="34px" viewBox="0 0 34 34" version="1.1">
    <!-- Generator: Sketch 51.3 (57544) - http://www.bohemiancoding.com/sketch -->
    <title>profile</title>
    <desc>Created with Sketch.</desc>
    <defs>
        <path d="M14.937,0.5 C6.977,0.5 0.5,6.976 0.5,14.937 C0.5,22.897 6.977,29.373 14.937,29.373 C22.897,29.373 29.373,22.897 29.373,14.937 C29.373,6.976 22.897,0.5 14.937,0.5" id="path-1"/>
    </defs>
    <g id="Page-1" stroke="none" stroke-width="1" fill="none" fill-rule="evenodd">
        <g id="Light" transform="translate(-28.000000, -602.000000)">
            <g id="profile" transform="translate(28.000000, 602.000000)">
                <g id="man" transform="translate(2.000000, 2.000000)">
                    <mask id="mask-2" fill="white">
                        <use xlink:href="#path-1"/>
                    </mask>
                    <g id="Path"/>
                    <path d="M15.27,32.705 C12.309,32.705 3.298,32.705 3.298,27.876 L3.298,27.074 C3.298,23.676 8.922,21.245 10.96,20.477 C11.085,20.323 11.354,19.906 11.208,19.296 C9.353,17.254 8.209,14.348 8.209,11.636 C8.209,7.254 11.1,4.194 15.239,4.194 C18.684,4.194 22.392,6.523 22.392,11.636 C22.392,14.727 20.841,17.544 19.311,19.249 C19.15,19.914 19.298,20.315 19.396,20.491 C21.568,21.252 27.179,23.563 27.179,27.074 L27.179,27.876 C27.179,32.705 18.215,32.705 15.27,32.705 L15.27,32.705 Z M10.709,11.636 C10.709,13.792 11.692,16.204 13.214,17.782 C13.333,17.904 13.425,18.05 13.484,18.21 C14.333,20.47 12.968,22.393 12.028,22.747 C8.176,24.16 5.798,26.092 5.798,27.074 L5.798,27.876 C5.798,28.95 8.278,30.205 15.27,30.205 C22.215,30.205 24.679,28.95 24.679,27.876 L24.679,27.074 C24.679,26.029 22.245,24.083 18.312,22.762 C17.434,22.474 16.246,20.767 16.959,18.376 C17.005,18.151 17.112,17.939 17.277,17.766 C18.483,16.506 19.892,14.144 19.892,11.636 C19.892,8.222 17.555,6.694 15.239,6.694 C13.149,6.694 10.709,7.988 10.709,11.636 Z" id="Fill-6" fill="#000000" mask="url(#mask-2)"/>
                </g>
                <path d="M16.937,2.5 C8.977,2.5 2.5,8.976 2.5,16.937 C2.5,24.897 8.977,31.373 16.937,31.373 C24.897,31.373 31.373,24.897 31.373,16.937 C31.373,8.976 24.897,2.5 16.937,2.5 M16.937,33.873 C7.598,33.873 0,26.275 0,16.937 C0,7.598 7.598,0 16.937,0 C26.275,0 33.873,7.598 33.873,16.937 C33.873,26.275 26.275,33.873 16.937,33.873" id="Fill-3" fill="#000000"/>
            </g>
        </g>
    </g>
</svg>