<svg xmlns="http://www.w3.org/2000/svg" xmlns:xlink="http://www.w3.org/1999/xlink" width="38px" height="38px" viewBox="0 0 38 38" version="1.1">
    <!-- Generator: Sketch 58 (84663) - https://sketch.com -->
    <title>refresh</title>
    <desc>Created with Sketch.</desc>
    <g id="Page-1" stroke="none" stroke-width="1" fill="none" fill-rule="evenodd">
        <g id="Light" transform="translate(-88.000000, -159.000000)" fill="#000000">
            <g id="refresh" transform="translate(88.000000, 159.000000)">
                <path d="M12.833,32.2360239 L12.846,22.2120239 L10.24,22.1870239 L10.23,30.2590239 L9.621,29.7620239 C6.733,27.4080239 4.961,24.0770239 4.629,20.3810239 C4.289,16.5810239 5.5,12.8550239 8.039,9.88902388 C11.184,6.21202388 15.786,4.44602388 20.274,4.71402388 L20.282,4.64702388 L20.224,2.22002388 C15.043,1.97202388 9.762,4.03002388 6.14,8.26302388 C3.159,11.7440239 1.738,16.1280239 2.139,20.6040239 C2.531,24.9770239 4.627,28.9170239 8.041,31.7000239 L8.518,32.0890239 L8.394,32.2130239 L0.204,32.2230239 L0.2,34.8580239 L10.252,34.8170239 C11.656,34.7860239 12.803,33.6400239 12.833,32.2360239" id="Fill-1"/>
                <path d="M27.88,3.241 C26.476,3.271 25.329,4.418 25.299,5.822 L25.286,15.845 L27.892,15.871 L27.903,7.799 L28.512,8.296 C31.399,10.649 33.171,13.981 33.503,17.676 C33.843,21.477 32.633,25.203 30.093,28.169 C26.949,31.844 22.349,33.611 17.862,33.343 L17.85,33.411 L17.909,35.838 C23.09,36.086 28.371,34.027 31.992,29.795 C34.973,26.313 36.394,21.93 35.993,17.453 C35.601,13.081 33.505,9.141 30.092,6.358 L29.614,5.969 L29.738,5.845 L37.929,5.834 L37.932,3.2 L27.88,3.241" id="Fill-2"/>
            </g>
        </g>
    </g>
</svg>