<svg xmlns="http://www.w3.org/2000/svg" xmlns:xlink="http://www.w3.org/1999/xlink" width="34px" height="34px" viewBox="0 0 34 34" version="1.1">
    <!-- Generator: Sketch 43.1 (39012) - http://www.bohemiancoding.com/sketch -->
    <title>request</title>
    <desc>Created with Sketch.</desc>
    <defs/>
    <g id="Page-1" stroke="none" stroke-width="1" fill="none" fill-rule="evenodd">
        <g id="Light" transform="translate(-83.000000, -352.000000)" fill="rgba(0,0,0,1)">
            <g id="request" transform="translate(83.000000, 352.000000)">
                <path d="M16.937,2.5 C8.977,2.5 2.5,8.976 2.5,16.937 C2.5,24.897 8.977,31.373 16.937,31.373 C24.897,31.373 31.373,24.897 31.373,16.937 C31.373,8.976 24.897,2.5 16.937,2.5 M16.937,33.873 C7.598,33.873 0,26.275 0,16.937 C0,7.598 7.598,0 16.937,0 C26.275,0 33.873,7.598 33.873,16.937 C33.873,26.275 26.275,33.873 16.937,33.873" id="Fill-3"/>
                <polygon id="Path" points="15.7864 21.0986 15.3464 6.0001 18.3659 6.0001 17.9254 21.0986"/>
                <path d="M14.9999,25.5966 C14.9999,24.4641 15.7864,23.6466 16.8559,23.6466 C17.9884,23.6466 18.7119,24.4641 18.7119,25.5966 C18.7119,26.6976 17.9884,27.5471 16.8559,27.5471 C15.7554,27.5471 14.9999,26.6976 14.9999,25.5966 L14.9999,25.5966 Z" id="Path"/>
            </g>
        </g>
    </g>
</svg>