<svg xmlns="http://www.w3.org/2000/svg" xmlns:xlink="http://www.w3.org/1999/xlink" xmlns:sketch="http://www.bohemiancoding.com/sketch/ns" width="38px" height="33px" viewBox="0 0 38 33" version="1.1">
    <!-- Generator: Sketch 3.3.3 (12081) - http://www.bohemiancoding.com/sketch -->
    <title>saldo</title>
    <desc>Created with Sketch.</desc>
    <defs>
        <path id="path-1" d="M12.177,0.934 C8.067,0.934 3.956,2.475 0.823,5.565 L2.593,7.303 C5.156,4.776 8.555,3.389 12.177,3.389 C15.799,3.389 19.206,4.776 21.768,7.303 L23.531,5.565 C20.406,2.475 16.288,0.934 12.177,0.934 L12.177,0.934 Z"/>
        <path id="path-3" d="M12.177,6.388 C16.288,6.388 20.398,4.847 23.531,1.757 L21.761,0.018 C19.198,2.546 15.799,3.933 12.177,3.933 C8.555,3.933 5.149,2.546 2.586,0.018 L0.823,1.757 C3.949,4.847 8.067,6.388 12.177,6.388 L12.177,6.388 Z"/>
        <path id="path-5" d="M10.295,17.263 L5.657,12.088 C5.659,12.046 5.67,12.007 5.67,11.965 C5.67,11.055 5.19,10.255 4.464,9.788 L4.087,1.484 C4.066,1.101 3.746,0.416 2.97,0.416 C2.197,0.416 1.883,1.101 1.857,1.484 L1.418,9.844 C0.736,10.318 0.288,11.089 0.288,11.965 C0.288,13.406 1.494,14.576 2.98,14.576 C3.088,14.576 3.191,14.556 3.296,14.545 L8.493,19.009 C8.787,19.265 9.547,19.496 10.171,18.892 C10.796,18.286 10.554,17.552 10.295,17.263 L10.295,17.263 Z"/>
    </defs>
    <g id="Page-1" stroke="none" stroke-width="1" fill="none" fill-rule="evenodd" sketch:type="MSPage">
        <g id="saldo" sketch:type="MSLayerGroup">
            <g id="Group-19" transform="translate(7.000000, 0.000000)">
                <mask id="mask-2" sketch:name="Clip 18" fill="white">
                    <use xlink:href="#path-1"/>
                </mask>
                <g id="Clip-18"/>
                <path d="M0.823,0.934 L23.531,0.934 L23.531,7.303 L0.823,7.303 L0.823,0.934 Z" id="Fill-17" fill="rgba(255,255,255,1)" sketch:type="MSShapeGroup" mask="url(#mask-2)"/>
            </g>
            <g id="Group-22" transform="translate(7.000000, 26.000000)">
                <mask id="mask-4" sketch:name="Clip 21" fill="white">
                    <use xlink:href="#path-3"/>
                </mask>
                <g id="Clip-21"/>
                <path d="M0.823,0.018 L23.531,0.018 L23.531,6.387 L0.823,6.387 L0.823,0.018 Z" id="Fill-20" fill="rgba(255,255,255,1)" sketch:type="MSShapeGroup" mask="url(#mask-4)"/>
            </g>
            <g id="Group-37" transform="translate(16.000000, 6.000000)">
                <mask id="mask-6" sketch:name="Clip 36" fill="white">
                    <use xlink:href="#path-5"/>
                </mask>
                <g id="Clip-36"/>
                <path d="M0.288,0.416 L10.796,0.416 L10.796,19.496 L0.288,19.496 L0.288,0.416 Z" id="Fill-35" fill="rgba(255,255,255,1)" sketch:type="MSShapeGroup" mask="url(#mask-6)"/>
            </g>
            <path d="M36.5,18.057 L28.063,18.057 C27.345,18.057 26.763,17.475 26.763,16.757 C26.763,16.04 27.345,15.458 28.063,15.458 L36.5,15.458 C37.218,15.458 37.8,16.04 37.8,16.757 C37.8,17.475 37.218,18.057 36.5,18.057" id="Fill-38" fill="rgba(255,255,255,1)" sketch:type="MSShapeGroup"/>
            <path d="M10.25,15.458 L7.331,15.458 L7.331,12.539 C7.331,11.821 6.749,11.239 6.032,11.239 C5.314,11.239 4.732,11.821 4.732,12.539 L4.732,15.458 L1.813,15.458 C1.095,15.458 0.513,16.04 0.513,16.757 C0.513,17.475 1.095,18.057 1.813,18.057 L4.732,18.057 L4.732,20.976 C4.732,21.693 5.314,22.275 6.032,22.275 C6.749,22.275 7.331,21.693 7.331,20.976 L7.331,18.057 L10.25,18.057 C10.968,18.057 11.55,17.475 11.55,16.757 C11.55,16.04 10.968,15.458 10.25,15.458" id="Fill-39" fill="rgba(255,255,255,1)" sketch:type="MSShapeGroup"/>
        </g>
    </g>
</svg>