<svg xmlns="http://www.w3.org/2000/svg" xmlns:xlink="http://www.w3.org/1999/xlink" width="35px" height="35px" viewBox="0 0 35 35" version="1.1">
    <!-- Generator: Sketch 43.2 (39069) - http://www.bohemiancoding.com/sketch -->
    <title>search</title>
    <desc>Created with Sketch.</desc>
    <defs/>
    <g id="Page-1" stroke="none" stroke-width="1" fill="none" fill-rule="evenodd">
        <g id="Light" transform="translate(-132.000000, -399.000000)" fill="#000000">
            <g id="search" transform="translate(132.000000, 399.000000)">
                <path d="M13.5398,27.0797 C21.0178,27.0797 27.0798,21.0177 27.0798,13.5397 C27.0798,6.0617 21.0178,-0.0003 13.5398,-0.0003 C6.0618,-0.0003 -0.0002,6.0617 -0.0002,13.5397 C-0.0002,21.0177 6.0618,27.0797 13.5398,27.0797 M13.5398,24.1987 C7.6528,24.1987 2.8808,19.4267 2.8808,13.5397 C2.8808,7.6527 7.6528,2.8807 13.5398,2.8807 C19.4268,2.8807 24.1988,7.6527 24.1988,13.5397 C24.1988,19.4267 19.4268,24.1987 13.5398,24.1987" id="Fill-1"/>
                <polygon id="Fill-4" points="24.0651 26.1021 31.6431 33.6801 32.6621 34.6991 34.6991 32.6621 33.6801 31.6431 26.1021 24.0651 25.0841 23.0461 23.0461 25.0831"/>
            </g>
        </g>
    </g>
</svg>