<svg xmlns="http://www.w3.org/2000/svg" xmlns:xlink="http://www.w3.org/1999/xlink" width="34px" height="34px" viewBox="0 0 34 34" version="1.1">
    <!-- Generator: Sketch 42 (36781) - http://www.bohemiancoding.com/sketch -->
    <title>uhr</title>
    <desc>Created with Sketch.</desc>
    <defs/>
    <g id="Page-1" stroke="none" stroke-width="1" fill="none" fill-rule="evenodd">
        <g id="Light" transform="translate(-29.000000, -369.000000)" fill="#000000">
            <g id="uhr" transform="translate(29.000000, 369.000000)">
                <path d="M23.4841,23.9694 L18.8331,18.7794 C18.8351,18.7384 18.8451,18.6984 18.8451,18.6564 C18.8451,17.7434 18.3641,16.9424 17.6361,16.4734 L17.2581,8.1454 C17.2371,7.7614 16.9161,7.0744 16.1381,7.0744 C15.3631,7.0744 15.0481,7.7614 15.0221,8.1454 L14.5811,16.5294 C13.8981,17.0044 13.4491,17.7784 13.4491,18.6564 C13.4491,20.1024 14.6581,21.2744 16.1481,21.2744 C16.2561,21.2744 16.3601,21.2554 16.4651,21.2434 L21.6771,25.7214 C21.9721,25.9784 22.7341,26.2094 23.3601,25.6034 C23.9871,24.9954 23.7441,24.2594 23.4841,23.9694" id="Fill-1"/>
                <path d="M16.9365,2.5 C8.9765,2.5 2.4995,8.976 2.4995,16.937 C2.4995,24.897 8.9765,31.373 16.9365,31.373 C24.8965,31.373 31.3725,24.897 31.3725,16.937 C31.3725,8.976 24.8965,2.5 16.9365,2.5 M16.9365,33.873 C7.5975,33.873 -0.0005,26.275 -0.0005,16.937 C-0.0005,7.598 7.5975,0 16.9365,0 C26.2745,0 33.8725,7.598 33.8725,16.937 C33.8725,26.275 26.2745,33.873 16.9365,33.873" id="Fill-3"/>
            </g>
        </g>
    </g>
</svg>