<svg xmlns="http://www.w3.org/2000/svg" xmlns:xlink="http://www.w3.org/1999/xlink" width="38px" height="35px" viewBox="0 0 38 35" version="1.1">
    <!-- Generator: Sketch 43.1 (39012) - http://www.bohemiancoding.com/sketch -->
    <title>warning</title>
    <desc>Created with Sketch.</desc>
    <defs/>
    <g id="Page-1" stroke="none" stroke-width="1" fill="none" fill-rule="evenodd">
        <g id="Light" transform="translate(-126.000000, -351.000000)" fill="rgba(219,73,216,1)">
            <g id="warning" transform="translate(126.000000, 351.000000)">
                <path d="M18.9994448,2.94658508 C18.7858868,2.94658508 18.601257,2.99763479 18.4191797,3.10654084 C18.2319974,3.21885021 18.095014,3.36264023 17.9878096,3.55833079 L3.37057536,30.3551756 C3.14170248,30.7678274 3.14765828,31.0851865 3.38844276,31.4961366 C3.49309467,31.6739598 3.62752558,31.8058382 3.81045371,31.911341 C3.99253102,32.0168437 4.1737575,32.0653409 4.38221049,32.0653409 L33.6175298,32.0653409 C33.825132,32.0653409 34.0063585,32.0168437 34.187585,31.9121918 C34.3713639,31.8058382 34.5066457,31.673109 34.6112976,31.4952858 C34.8512312,31.0851865 34.8580379,30.7669766 34.6334191,30.362833 L20.0127815,3.56003245 C19.9047263,3.36349106 19.7668921,3.21970104 19.5797098,3.10654084 C19.3976325,2.99763479 19.2130027,2.94658508 18.9994448,2.94658508 M33.6175298,34.6178265 L4.38221049,34.6178265 C3.72537086,34.6178265 3.1034152,34.4502133 2.53506174,34.1226443 C1.96840993,33.7959262 1.51491832,33.3458379 1.18734933,32.7876944 C0.486266618,31.5939819 0.467548391,30.3270982 1.13459796,29.1248775 L15.7484289,2.3331377 C16.0734454,1.74011021 16.5294895,1.26364623 17.1046496,0.918209844 C18.2651797,0.222232101 19.7337098,0.222232101 20.8942399,0.918209844 C21.4676983,1.26364623 21.9245933,1.73840855 22.2496098,2.32973439 L22.2513114,2.3331377 L36.8693965,29.1316841 C37.5313411,30.3262474 37.5134737,31.5922803 36.812391,32.7876944 C36.4831204,33.3475395 36.0296288,33.796777 35.4629769,34.1234952 C34.8954743,34.4502133 34.2735187,34.6178265 33.6175298,34.6178265" id="Fill-1"/>
                <g id="Group" transform="translate(17.000000, 8.000000)">
                    <polygon id="Path" points="0.7864 15.0986 0.3464 0.0001 3.3659 0.0001 2.9254 15.0986"/>
                    <path d="M-0.0001,19.5966 C-0.0001,18.4641 0.7864,17.6466 1.8559,17.6466 C2.9884,17.6466 3.7119,18.4641 3.7119,19.5966 C3.7119,20.6976 2.9884,21.5471 1.8559,21.5471 C0.7554,21.5471 -0.0001,20.6976 -0.0001,19.5966 L-0.0001,19.5966 Z" id="Path"/>
                </g>
            </g>
        </g>
    </g>
</svg>